<?xml version="1.0" standalone="no"?>
<!DOCTYPE svg PUBLIC "-//W3C//DTD SVG 20010904//EN"
 "http://www.w3.org/TR/2001/REC-SVG-20010904/DTD/svg10.dtd">
<svg version="1.0" xmlns="http://www.w3.org/2000/svg"
 width="192.000000pt" height="192.000000pt" viewBox="0 0 192.000000 192.000000"
 preserveAspectRatio="xMidYMid meet">

<g transform="translate(0.000000,192.000000) scale(0.100000,-0.100000)"
fill="#000000" stroke="none">
<path d="M850 1890 c-222 -27 -416 -125 -572 -288 -265 -278 -332 -690 -169
-1038 90 -190 248 -353 436 -447 131 -65 334 -105 475 -92 426 37 761 328 851
738 27 121 22 322 -10 442 -97 363 -417 638 -796 684 -99 12 -119 12 -215 1z
m-207 -181 c26 -17 56 -43 66 -58 l20 -27 -184 -184 -185 -184 -39 38 c-22 22
-47 54 -56 72 -20 42 -19 117 2 157 23 44 129 154 182 188 64 41 130 40 194
-2z m500 -487 c233 -233 337 -344 337 -359 0 -23 -24 -53 -43 -53 -6 0 -167
154 -356 343 -190 188 -347 343 -350 345 -7 4 52 62 64 62 6 0 162 -152 348
-338z m-120 -130 c333 -334 347 -349 347 -385 0 -52 -35 -87 -87 -87 -37 0
-51 13 -388 350 l-350 350 60 60 c33 33 62 60 65 60 3 0 162 -157 353 -348z
m145 -547 c-3 -25 -8 -31 -32 -33 -27 -3 -61 28 -372 339 l-344 343 32 33 32
33 344 -342 c312 -313 342 -346 340 -373z m419 18 c28 -114 50 -209 48 -211
-3 -3 -406 96 -411 101 -2 2 5 21 16 42 16 32 25 39 56 42 86 9 154 78 154
157 0 30 5 37 38 54 20 11 39 20 42 21 3 0 29 -92 57 -206z m-910 -255 l32
-63 0 63 c1 55 3 62 21 62 19 0 20 -7 20 -100 0 -98 -1 -100 -23 -100 -18 0
-29 13 -54 63 l-31 62 1 -60 c2 -55 0 -60 -20 -63 -23 -3 -23 -1 -23 97 0 99
1 101 23 101 18 0 29 -13 54 -62z m243 47 c17 -21 3 -35 -32 -32 -25 2 -35 -4
-47 -25 -14 -25 -15 -31 -1 -55 13 -22 23 -28 50 -28 35 0 52 -21 29 -36 -8
-5 -31 -9 -51 -9 -51 0 -78 35 -78 102 0 39 5 54 25 73 28 29 85 34 105 10z
m92 -22 l3 -38 23 38 c17 26 31 37 48 37 30 0 30 -3 -2 -45 l-26 -35 31 -55
c17 -30 31 -57 31 -60 0 -3 -11 -5 -23 -5 -17 0 -29 10 -43 35 -22 42 -38 40
-42 -3 -3 -26 -8 -32 -28 -32 -24 0 -24 1 -24 93 0 98 2 107 31 107 13 0 19
-9 21 -37z m168 -17 c0 -64 14 -106 34 -106 24 0 36 34 36 99 0 54 2 61 20 61
18 0 20 -7 20 -78 0 -98 -14 -122 -71 -122 -63 0 -79 24 -79 120 0 73 2 80 20
80 18 0 20 -7 20 -54z"/>
</g>
</svg>
